<svg width="24" height="24" viewBox="0 0 24 24" fill="none" xmlns="http://www.w3.org/2000/svg">
<g id="Icon">
<path id="Vector" d="M19.5 20.25L3 3.75" stroke="#00F0FF" stroke-miterlimit="10" stroke-linecap="square"/>
<path id="Vector_2" d="M16.5 12C16.5 10.8487 16.2277 9.75562 15.668 8.65921L15.3281 7.99077L13.9913 8.67187L14.332 9.33983C14.7816 10.2216 15 11.0916 15 12C14.9997 12.1838 14.9899 12.3675 14.9705 12.5503L16.2511 13.8309C16.4149 13.2344 16.4986 12.6186 16.5 12ZM19.5 12C19.5 9.60046 18.8869 8.06765 17.8978 6.37218L17.52 5.72437L16.2244 6.47999L16.6022 7.1278C17.4877 8.64562 18 9.92952 18 12C18 13.2155 17.8177 14.1661 17.4844 15.0623L18.6328 16.2112C19.1808 14.985 19.5 13.7072 19.5 12Z" fill="#00F0FF"/>
<path id="Vector_3" d="M22.5 12C22.5 8.51906 21.5536 6.32297 20.1323 4.09641L19.7288 3.46406L18.4631 4.27125L18.8667 4.90359C20.1478 6.90844 21 8.88281 21 12C21 14.2856 20.5594 15.9375 19.8366 17.4164L20.9475 18.5273C22.0387 16.4714 22.5 14.4844 22.5 12ZM12 3.375L8.55 6.13031L12 9.57984V3.375ZM1.5 8.25469V15.7453H5.88984L12 20.625V15.9202L4.33453 8.25469H1.5Z" fill="#00F0FF"/>
</g>
</svg>
